<?xml version="1.0" encoding="iso-8859-1"?>
<!-- Generator: Adobe Illustrator 19.0.0, SVG Export Plug-In . SVG Version: 6.00 Build 0)  -->
<svg version="1.1" id="Capa_1" xmlns="http://www.w3.org/2000/svg" xmlns:xlink="http://www.w3.org/1999/xlink" x="0px" y="0px"
	 viewBox="0 0 512 512" style="enable-background:new 0 0 512 512;" xml:space="preserve">
<path style="fill:#8AC2FF;" d="M136.57,75.935c0,13.29,0,292.74,0,308.618c0,4.815,3.904,8.719,8.719,8.719
	c4.768,0,335.035,0,340.336,0c4.816,0,8.719-3.904,8.719-8.719c0-15.879,0-295.33,0-308.618H136.57z"/>
<path style="fill:#54A0FF;" d="M156.472,384.553c0-15.878,0-295.329,0-308.618H136.57c0,13.29,0,292.74,0,308.618
	c0,4.815,3.904,8.719,8.719,8.719c0.678,0,7.939,0,19.902,0C160.376,393.273,156.472,389.369,156.472,384.553z"/>
<path style="fill:#576574;" d="M135.104,120.76c-38.821,0-70.289,31.469-70.289,70.29v27.815c4.698-4.355,11.381-6.721,17.905-5.85
	v-3.503c0-2.784,2.377-4.984,5.134-4.775c27.176,1.952,54.833-6.683,75.745-20.344c1.952-1.276,4.537-0.958,6.124,0.747
	c17.878,19.217,17.77,18.473,17.77,20.982V213c7.151-1.072,13.494,1.138,17.901,5.235V191.05
	C205.394,152.229,173.926,120.76,135.104,120.76z"/>
<path style="fill:#3E4B5A;" d="M83.681,191.05c0-35.62,26.499-65.03,60.856-69.641c-3.087-0.414-6.232-0.648-9.433-0.648
	c-38.821,0-70.289,31.469-70.289,70.29v27.816c4.697-4.355,11.381-6.721,17.904-5.85v-3.503c0-1.081,0.362-2.072,0.962-2.87V191.05z
	"/>
<g>
	<path style="fill:#F2BB88;" d="M186.561,210.207v38.505c0,0.417-0.022,0.83-0.032,1.245c13.626,2.063,24.298-7.782,24.298-19.874
		C210.827,217.968,200.146,208.171,186.561,210.207z"/>
	<path style="fill:#F2BB88;" d="M83.651,248.712v-38.49c-11.863-1.584-24.266,7.52-24.266,19.862
		c0,12.076,10.648,21.939,24.297,19.873C83.671,249.541,83.651,249.128,83.651,248.712z"/>
</g>
<g>
	<path style="fill:#E3A76F;" d="M203.608,214.693c-4.354-3.612-10.346-5.491-17.047-4.486v38.505c0,0.417-0.022,0.83-0.032,1.245
		c6.721,1.018,12.721-0.866,17.078-4.484L203.608,214.693L203.608,214.693z"/>
	<path style="fill:#E3A76F;" d="M83.651,245.476c-4.478-3.719-7.22-9.269-7.22-15.392c0-5.958,2.895-11.156,7.22-14.767v-5.095
		c-11.862-1.584-24.266,7.52-24.266,19.862c0,12.075,10.648,21.939,24.296,19.873c-0.01-0.415-0.03-0.829-0.03-1.245V245.476z"/>
</g>
<path style="fill:#F2BB88;" d="M135.853,299.418c-11.356,0-21.335-3.118-29.497-8.333v27.586l29.371,36.254l29.371-36.254v-28.364
	C156.777,296.047,146.703,299.418,135.853,299.418z"/>
<path style="fill:#E3A76F;" d="M125.166,298.447c-7.002-1.299-13.319-3.852-18.81-7.361v27.586l18.81,23.218V298.447z"/>
<path style="fill:#E4EAF8;" d="M242.797,346.9l-77.699-30.091l-29.37,36.254l-29.371-36.254L28.738,346.9
	c0,0-28.738,11.815-28.738,44.575v73.106c0,3.692,2.993,6.685,6.685,6.685h258.223c3.66,0,6.627-2.967,6.627-6.627v-73.164
	C271.535,358.715,242.797,346.9,242.797,346.9z"/>
<path style="fill:#D8DCE5;" d="M18.81,464.581v-81.57c0-22.477,13.526-35.092,22.019-40.798L28.738,346.9
	c0,0-28.738,11.814-28.738,44.575v73.106c0,3.692,2.993,6.685,6.685,6.685h18.81C21.803,471.266,18.81,468.273,18.81,464.581z"/>
<path style="fill:#F2D1A5;" d="M169.722,183.279c-1.587-1.705-4.172-2.022-6.124-0.747c-20.911,13.661-48.568,22.296-75.745,20.344
	c-2.756-0.209-5.134,1.99-5.134,4.775v41.992c0,26.988,21.147,51.638,53.134,51.638c28.474,0,51.639-23.165,51.639-51.638v-45.382
	C187.492,201.752,187.6,202.495,169.722,183.279z"/>
<path style="fill:#F2BB88;" d="M101.53,249.643v-46.658c-4.55,0.242-9.119,0.219-13.676-0.109c-2.756-0.209-5.134,1.99-5.134,4.775
	v41.992c0,26.988,21.147,51.638,53.134,51.638c2.951,0,5.84-0.262,8.657-0.74C120.146,296.409,101.53,275.165,101.53,249.643z"/>
<g>
	<path style="fill:#D8DCE5;" d="M171.19,371.692l21.963-44.017l-28.055-10.865l-29.371,36.254l28.635,20.337
		C166.68,375.047,169.92,374.236,171.19,371.692z"/>
	<path style="fill:#D8DCE5;" d="M100.305,371.692l-21.963-44.017l28.055-10.865l29.371,36.254L107.132,373.4
		C104.814,375.047,101.574,374.236,100.305,371.692z"/>
</g>
<path style="fill:#EE5253;" d="M135.765,353.088v-0.025l-0.018,0.013l-0.018-0.013v0.025l-20.827,14.792l9.845,14.817
	c7.94,0,14.059,0,22.001,0l9.845-14.817L135.765,353.088z"/>
<path style="fill:#D83941;" d="M146.17,360.478l-10.405-7.39v-0.025l-0.017,0.013l-0.018-0.013v0.025l-20.827,14.792l9.845,14.817
	c7.66,0,13.609,0,20.845,0l-8.083-12.166c-0.982-1.477-0.613-3.467,0.834-4.494L146.17,360.478z"/>
<path style="fill:#FF6B6B;" d="M111.281,471.266h48.933l-13.467-88.569c-7.94,0-14.059,0-22.001,0L111.281,471.266z"/>
<path style="fill:#EE5253;" d="M124.747,382.697l-13.466,88.569h20.845l13.466-88.569
	C138.324,382.697,132.436,382.697,124.747,382.697z"/>
<path style="fill:#576574;" d="M501.538,40.734H129.376c-5.754,0-10.462,4.708-10.462,10.462v17.367
	c0,5.754,4.708,10.462,10.462,10.462h372.162c5.754,0,10.462-4.708,10.462-10.462V51.196C512,45.442,507.292,40.734,501.538,40.734z
	"/>
<path style="fill:#3E4B5A;" d="M501.538,58.732H129.376c-5.257,0-9.628-3.933-10.347-8.999c-0.068,0.48-0.115,0.966-0.115,1.463
	v17.367c0,5.754,4.708,10.462,10.462,10.462h372.162c5.754,0,10.462-4.708,10.462-10.462V51.196c0-0.498-0.047-0.984-0.115-1.463
	C511.166,54.799,506.794,58.732,501.538,58.732z"/>
<g>
	<path style="fill:#D8DCE5;" d="M56.638,471.266v-68.53c0-4.267-3.459-7.727-7.727-7.727s-7.727,3.459-7.727,7.727v68.53H56.638z"/>
	<path style="fill:#D8DCE5;" d="M230.352,471.266v-68.53c0-4.267-3.459-7.727-7.727-7.727c-4.267,0-7.727,3.459-7.727,7.727v68.53
		H230.352z"/>
</g>
<path style="fill:#FF6B6B;" d="M217.503,295.189c-3.012-3.023-3.002-7.915,0.021-10.927l70.187-69.919
	c2.859-2.848,7.429-3.016,10.49-0.386l43.92,37.748l68.733-74.02c2.904-3.127,7.792-3.308,10.92-0.404
	c3.127,2.904,3.308,7.793,0.404,10.92l-73.793,79.469c-2.825,3.043-7.55,3.309-10.699,0.602l-44.136-37.933l-65.12,64.871
	C225.408,298.222,220.515,298.213,217.503,295.189z"/>
<path style="fill:#EE5253;" d="M442.517,160.967c0-2.002-1.623-3.625-3.625-3.625h-39.225c-3.229,0-4.846,3.904-2.563,6.187
	l39.225,39.225c2.283,2.283,6.188,0.666,6.188-2.563V160.967z"/>
<path style="fill:#D83941;" d="M417.709,163.53c-2.283-2.283-0.666-6.188,2.563-6.188h18.62l0,0h-39.225
	c-3.229,0-4.846,3.904-2.563,6.188l39.225,39.225c2.283,2.283,6.188,0.666,6.188-2.563v-11.854L417.709,163.53z"/>
<g>
</g>
<g>
</g>
<g>
</g>
<g>
</g>
<g>
</g>
<g>
</g>
<g>
</g>
<g>
</g>
<g>
</g>
<g>
</g>
<g>
</g>
<g>
</g>
<g>
</g>
<g>
</g>
<g>
</g>
</svg>
