<?xml version="1.0" encoding="iso-8859-1"?>
<!-- Generator: Adobe Illustrator 19.0.0, SVG Export Plug-In . SVG Version: 6.00 Build 0)  -->
<svg version="1.1" id="Capa_1" xmlns="http://www.w3.org/2000/svg" xmlns:xlink="http://www.w3.org/1999/xlink" x="0px" y="0px"
	 viewBox="0 0 512.042 512.042" style="enable-background:new 0 0 512.042 512.042;" xml:space="preserve">
<path style="fill:#2196F3;" d="M472.426,64.468l-213.333-64c-1.993-0.624-4.13-0.624-6.123,0l-213.333,64
	c-4.518,1.349-7.615,5.504-7.616,10.219v234.667c0,94.315,143.829,178.219,220.843,202.197c2.083,0.655,4.317,0.655,6.4,0
	c76.928-23.979,220.757-107.883,220.757-202.197V74.687C480.023,69.978,476.936,65.825,472.426,64.468z"/>
<path style="fill:#FAFAFA;" d="M366.762,207.892c-1.888-5.58-7.942-8.573-13.523-6.685c-0.253,0.086-0.503,0.181-0.749,0.285
	c-5.158,2.376-11.266,0.12-13.641-5.038c-2.076-4.508-0.636-9.856,3.423-12.712c4.699-3.552,5.629-10.242,2.077-14.941
	c-0.158-0.21-0.325-0.413-0.498-0.611c-16.816-19.445-39.612-32.757-64.811-37.845c-2.948-0.629-6.024,0.056-8.427,1.877
	c-2.417,1.79-3.967,4.517-4.267,7.509c-0.366,5.691-5.277,10.007-10.967,9.641c-5.18-0.334-9.307-4.461-9.641-9.641
	c-0.605-5.86-5.846-10.12-11.706-9.514c-0.331,0.034-0.661,0.084-0.987,0.149c-25.188,5.087-47.976,18.391-64.789,37.824
	c-3.89,4.424-3.456,11.164,0.968,15.054c0.197,0.174,0.401,0.34,0.611,0.498c4.645,3.268,5.761,9.682,2.493,14.327
	c-2.856,4.059-8.204,5.499-12.712,3.423c-5.423-2.302-11.685,0.228-13.987,5.651c-0.104,0.246-0.2,0.496-0.285,0.749
	c-8.835,24.193-8.835,50.73,0,74.923c1.888,5.58,7.942,8.573,13.523,6.685c0.253-0.086,0.503-0.181,0.749-0.285
	c5.082-2.508,11.235-0.421,13.743,4.661c2.284,4.628,0.775,10.233-3.524,13.089c-4.705,3.545-5.645,10.233-2.099,14.938
	c0.159,0.211,0.325,0.415,0.499,0.614c16.816,19.456,39.622,32.769,64.832,37.845c5.778,1.15,11.394-2.601,12.544-8.378
	c0.065-0.327,0.115-0.656,0.149-0.987c0.366-5.691,5.277-10.007,10.967-9.641c5.18,0.334,9.307,4.461,9.641,9.641
	c0.3,2.993,1.849,5.72,4.267,7.509c1.846,1.385,4.092,2.133,6.4,2.133c0.717,0.005,1.432-0.067,2.133-0.213
	c25.21-5.077,48.016-18.39,64.832-37.845c3.884-4.429,3.443-11.168-0.986-15.053c-0.198-0.174-0.403-0.341-0.614-0.499
	c-4.645-3.268-5.761-9.682-2.493-14.327c2.856-4.059,8.204-5.499,12.712-3.423c5.423,2.302,11.685-0.228,13.987-5.651
	c0.104-0.246,0.2-0.496,0.285-0.749c8.835-24.193,8.835-50.73,0-74.923L366.762,207.892z"/>
<circle style="fill:#1976D2;" cx="256.021" cy="245.354" r="53.333"/>
<g>
</g>
<g>
</g>
<g>
</g>
<g>
</g>
<g>
</g>
<g>
</g>
<g>
</g>
<g>
</g>
<g>
</g>
<g>
</g>
<g>
</g>
<g>
</g>
<g>
</g>
<g>
</g>
<g>
</g>
</svg>
